# xmcd
#
# Track frame offsets: 
#        150
#        23625
#        34780
#        42202
#        122527
#        135680
#        149227
#        157302
#        172320
#        187030
#        206302
#        226227
#        249450
#        275185
#
# Disc length: 4072 seconds
#
# Revision: 7
# Processed by: cddbd v1.5.2PL0 Copyright (c) Steve Scherf et al.
# Submitted via: ExactAudioCopy v1.1
#
DISCID=d50fe60e
DTITLE=Various Artist - Orgues de Provence
DYEAR=1974
DGENRE=Classical
TTITLE0=Francis Chapelet - Suite de Danses (XVIIe siecle)
TTITLE1=Francis Chapelet - 4 Versets du Kyrie Cunctipotens (Livre d'At
TTITLE1=taingnant, 1530)
TTITLE2=Francis Chapelet - Branle de Basque
TTITLE3=Michel Chapuis - Messe des Paroisses - Gloria
TTITLE4=Lucienne Antonini - Toccata per l'Elevazione
TTITLE5=Lucienne Antonini - Toccata Settima
TTITLE6=Lucienne Antonini - Canzone dopo l'Elevazione
TTITLE7=Michel Chapuis - Fugue deuxieme et caprice sur le mesme sujet
TTITLE8=Michel Chapuis - Fugue douzieme
TTITLE9=Michel Chapuis - Fugue cinquieme
TTITLE10=Michel Chapuis - Fugue dixieme
TTITLE11=René Saorgin - Toccata no 10 en re majeur
TTITLE12=René Saorgin - Toccata no 2 en sol mineur
TTITLE13=René Saorgin - Toccata no 9 en mi mineur
EXTD=YEAR: 2007
EXTT0=
EXTT1=
EXTT2=
EXTT3=
EXTT4=
EXTT5=
EXTT6=
EXTT7=
EXTT8=
EXTT9=
EXTT10=
EXTT11=
EXTT12=
EXTT13=
PLAYORDER=
